<?xml version="1.0" encoding="UTF-8"?>
<svg id="Layer_1" data-name="Layer 1" xmlns="http://www.w3.org/2000/svg" viewBox="0 0 190 190">
  <defs>
    <style>
      .cls-1 {
        fill: none;
      }

      .cls-2 {
        fill: #dc623f;
      }

      .cls-3 {
        fill: #1d1d1b;
      }
    </style>
  </defs>
  <path class="cls-2" d="M64.52,93.36c2.69,3.81,5.17,7.81,7.36,11.93-13.66,8.67-32.67,2.87-39.01-12.3-1.25-3-1.98-6.4-1.12-9.56,1.12-4.18,4.8-6.45,8.98-6.5,10.26-.1,18.33,8.75,23.79,16.42Z"/>
  <path class="cls-2" d="M101,53.02c-3.11,10.76-7.34,21.49-12.74,31.44-.13-.13-.26-.29-.39-.42-13.4-15.07-13.87-39.04-9.06-54.81,5.48-17.96,18.02-15.04,22.22-10.16,3.21,3.76,3.66,9.27,3.52,14.02-.18,6.74-1.7,13.45-3.55,19.92Z"/>
  <path class="cls-2" d="M130.84,117.15l-6.76,2.22c-1.72-1.54-4.02-2.11-6.71-1.62-3.53,.63-5.77,2.69-6.48,5.98l-14.07,4.65c-2.51-2.27-5.56-2.61-8.8-.99-2.48,1.23-3.97,3.05-4.39,5.35l-1.46,.47-.7-4.31c-2.32-8.17-5.54-16.11-9.58-23.6,.6-.37,1.18-.78,1.75-1.2,4.49-3.37,7.81-8.07,10.76-12.85,1.36-2.22,2.66-4.49,3.86-6.79,5.33,5.85,11.85,10.57,18.98,13.97,7.15,3.42,15.14,5.59,23.06,5.72-.34,4.39-.13,8.88,.55,13Z"/>
  <path class="cls-2" d="M164.84,84.98c-4.13,8.56-10.37,13.19-18.98,16.53-4.96,1.93-10.24,2.74-15.56,2.64,.26-3.5,.86-6.95,1.91-10.13,3.71-11.65,12.9-26.71,26.11-28.85,2.25-.34,4.73,.05,6.4,1.62,1.28,1.2,1.93,2.95,2.27,4.67,.89,4.57-.1,9.35-2.14,13.53Z"/>
  <g>
    <path class="cls-3" d="M162.16,70.81c-.49-2.52-1.43-4.39-2.85-5.73-1.96-1.84-4.89-2.6-8.04-2.1-14.03,2.26-23.67,17.66-27.66,30.16-.86,2.69-1.46,5.64-1.81,8.72-6.68-.38-13.68-2.21-20.47-5.45-6.57-3.14-12.55-7.44-17.41-12.51,4.95-9.37,9.04-19.63,12.21-30.62,2.35-8.17,3.48-14.46,3.64-20.41,.12-4.43-.16-10.85-4.02-15.34-2.44-2.85-7.25-5.23-12.5-4.13-4.12,.86-9.73,4.16-13.04,14.98-4.98,16.31-4.25,40.67,8.97,56.09-1.03,1.86-2.1,3.69-3.2,5.47-2.73,4.43-5.86,8.98-10.15,12.25-1.98-3.52-4.14-6.93-6.48-10.23-8.29-11.7-16.63-17.35-25.39-17.24-5.31,.06-9.56,3.17-10.84,7.93-.86,3.22-.45,6.86,1.21,10.83,3.41,8.14,10.37,14.16,19.09,16.51,7.21,1.95,14.64,1.11,20.96-2.26,3.5,6.79,6.33,13.95,8.45,21.42l3.74-1.06c-2.22-7.82-5.19-15.33-8.88-22.43,.12-.09,.24-.18,.37-.27,4.88-3.68,8.41-8.83,11.23-13.4,.91-1.48,1.8-2.99,2.67-4.52,5.02,5.03,11.07,9.3,17.69,12.45,7.22,3.45,14.68,5.4,21.85,5.81-.12,2.9,.06,5.85,.39,8.78-1.56-.32-3.27-.33-5.11,0-7.34,1.33-10.94,6.95-9.45,15.27l.44,2.4c1.49,8.36,6.79,12.35,14.15,11.05,7.36-1.33,10.97-6.92,9.45-15.28l-.42-2.4c-.75-4.2-2.48-7.3-4.96-9.18-.55-3.51-.76-7.09-.62-10.57,5.08-.11,9.96-1.02,14.42-2.76,9.87-3.84,16.05-9.23,20.04-17.49,1.68-3.48,3.44-8.86,2.3-14.75ZM44.45,106.24c-7.55-2.04-13.57-7.24-16.52-14.26-1.33-3.16-1.68-5.96-1.04-8.32,.98-3.67,4.32-5.01,7.12-5.04,.06,0,.12,0,.17,0,7.37,0,14.57,5.11,22,15.6,2.3,3.25,4.43,6.62,6.37,10.09-5.45,2.91-11.87,3.62-18.1,1.94Zm36.71-25.48c-11.32-14.34-11.78-36.34-7.23-51.24,2.18-7.12,5.67-11.38,10.12-12.31,.62-.13,1.23-.19,1.82-.19,2.95,0,5.56,1.45,6.92,3.04,2.98,3.47,3.19,8.91,3.08,12.7-.15,5.61-1.23,11.6-3.49,19.44-2.95,10.22-6.71,19.78-11.22,28.56Zm46.62,48.06c1.12,6.32-1.31,10.26-6.42,11.18-5.14,.94-8.75-1.93-9.9-8.28l-.52-2.77c-1.12-6.34,1.28-10.29,6.42-11.2,.15-.03,.28-.02,.43-.04-1.13,1.08-1.75,2.65-1.54,4.32,.36,2.78,2.91,4.74,5.69,4.37,2.16-.28,3.8-1.88,4.27-3.89,.45,1.03,.83,2.17,1.07,3.51l.5,2.79Zm28.57-44.95c-3.58,7.41-8.94,12.06-17.94,15.56-3.93,1.53-8.22,2.35-12.7,2.48,.32-2.68,.86-5.24,1.61-7.59,3.95-12.35,13.07-25.65,24.57-27.51,.42-.07,.83-.1,1.23-.1,1.43,0,2.69,.42,3.52,1.2,.8,.75,1.37,1.97,1.69,3.63,.73,3.78,.03,8.15-1.98,12.32Z"/>
    <path class="cls-3" d="M80.16,159.25c-3.93,3.3-8.26,2.87-12.61-2.32l-1.83-2.18c-4.1-4.89-4.18-9.4-.6-12.4,2.98-2.5,5.86-2.47,8.39-.18l2.08-2.61c-4.04-3.97-8.48-3.14-12.45,.18-5.46,4.58-5.58,11.03-.13,17.53l1.58,1.88c5.67,6.77,12.01,7.35,17.46,2.77,2.98-2.5,4.31-5.39,4.82-8.67l-2.88-1.14c-.5,2.86-1.77,5.4-3.83,7.12Z"/>
    <path class="cls-3" d="M82.88,143.95c3.79,7.59,9.99,9.92,16.7,6.62,6.68-3.34,8.56-9.73,4.77-17.32l-1.07-2.21c-3.76-7.56-10.02-9.92-16.7-6.62-6.68,3.34-8.56,9.76-4.8,17.32l1.1,2.21Zm5.16-16.57c.77-.39,1.53-.62,2.27-.78-1.58,1.03-2.54,2.9-2.27,4.9,.36,2.78,2.91,4.74,5.69,4.37,2.78-.36,4.74-2.91,4.37-5.69-.03-.2-.09-.39-.14-.58,.68,.83,1.33,1.78,1.91,2.93l1.26,2.53c2.85,5.77,1.65,10.25-3.02,12.55-4.7,2.33-8.98,.58-11.84-5.16l-1.26-2.53c-2.85-5.77-1.69-10.21,3.02-12.55Z"/>
    <polygon class="cls-3" points="153.25 114.35 140.79 125.97 140.14 125.91 141.23 113.27 137.55 112.95 135.11 141.06 138.8 141.38 139.93 128.31 140.55 128.37 150.97 142.43 155.74 142.84 143.97 127.14 157.51 114.72 153.25 114.35"/>
    <path class="cls-3" d="M96.47,157.44c-2.81-.53-5.58,1.11-6.44,3.83-.9,2.85,.55,5.83,3.36,6.94,2,.79,6.05,1.45,10.66,1.45,6.04,0,13.04-1.14,17.59-4.61,3.44-2.62,5.13-6.33,4.93-10.76,2.59-2.23,5.01-5.05,7.12-8.62l-3.35-1.98c-9.7,16.37-26.93,15.08-33.89,13.77Zm22.82,4.5c-6.73,5.14-21.12,3.96-24.46,2.64-.89-.35-1.35-1.27-1.08-2.15,.23-.73,.91-1.2,1.67-1.2,.11,0,.22,0,.34,.03,5.49,1.03,16.72,2.04,26.69-3.99-.45,1.86-1.5,3.4-3.16,4.66Z"/>
  </g>
  <rect class="cls-1" width="190" height="190"/>
</svg>